# Blender v2.93.5 OBJ File: 'untitled.blend'
# www.blender.org
o Cube
v 1.000000 1.000000 -1.000000
v 1.000000 -1.000000 -1.000000
v 1.000000 1.000000 1.000000
v 1.000000 -1.000000 1.000000
v -1.000000 1.000000 -1.000000
v -1.000000 -1.000000 -1.000000
v -1.000000 1.000000 1.000000
v -1.000000 -1.000000 1.000000
v 1.000000 2.625256 -1.000000
v 1.000000 0.625256 -1.000000
v 1.000000 2.625256 1.000000
v 1.000000 0.625256 1.000000
v -1.000000 2.625256 -1.000000
v -1.000000 0.625256 -1.000000
v -1.000000 2.625256 1.000000
v -1.000000 0.625256 1.000000
vn 0.0000 -1.0000 0.0000
vn 0.0000 0.0000 -1.0000
vn 1.0000 0.0000 0.0000
vn 0.0000 1.0000 0.0000
vn -1.0000 0.0000 0.0000
vn 0.0000 0.0000 1.0000
s off
f 3//1 5//1 1//1
f 8//2 3//2 4//2
f 6//3 7//3 8//3
f 8//4 2//4 6//4
f 4//5 1//5 2//5
f 2//6 5//6 6//6
f 13//4 11//4 9//4
f 11//6 16//6 12//6
f 15//5 14//5 16//5
f 10//1 16//1 14//1
f 9//3 12//3 10//3
f 13//2 10//2 14//2
f 3//1 7//1 5//1
f 8//2 7//2 3//2
f 6//3 5//3 7//3
f 8//4 4//4 2//4
f 4//5 3//5 1//5
f 2//6 1//6 5//6
f 13//4 15//4 11//4
f 11//6 15//6 16//6
f 15//5 13//5 14//5
f 10//1 12//1 16//1
f 9//3 11//3 12//3
f 13//2 9//2 10//2
